<?xml version="1.0" encoding="UTF-8" standalone="no"?>
<!DOCTYPE svg PUBLIC "-//W3C//DTD SVG 1.1//EN"
 "http://www.w3.org/Graphics/SVG/1.1/DTD/svg11.dtd">
<!-- Generated by graphviz version 2.36.0 (20140111.2315)
 -->
<!-- Title: models_diagram Pages: 1 -->
<svg width="519pt" height="288pt"
 viewBox="0.00 0.00 519.00 288.00" xmlns="http://www.w3.org/2000/svg" xmlns:xlink="http://www.w3.org/1999/xlink">
<g id="graph0" class="graph" transform="scale(1 1) rotate(0) translate(4 284)">
<title>models_diagram</title>
<polygon fill="none" stroke="none" points="-4,4 -4,-284 515,-284 515,4 -4,4"/>
<!-- _diagram_info -->
<g id="node1" class="node"><title>_diagram_info</title>
<text text-anchor="start" x="7" y="-243.6" font-family="Times,serif" font-size="13.00">Models diagram</text>
<text text-anchor="start" x="7" y="-229.6" font-family="Times,serif" font-size="13.00">Date: Apr 15 2016 &#45; 20:31</text>
<text text-anchor="start" x="7" y="-215.6" font-family="Times,serif" font-size="13.00">Migration version: 20160416011844</text>
<text text-anchor="start" x="7" y="-201.6" font-family="Times,serif" font-size="13.00">Generated by RailRoady 1.4.2</text>
<text text-anchor="start" x="7" y="-187.6" font-family="Times,serif" font-size="13.00">http://railroady.prestonlee.com</text>
</g>
<!-- Trabajador -->
<g id="node2" class="node"><title>Trabajador</title>
<path fill="none" stroke="black" d="M243.5,-166C243.5,-166 350.5,-166 350.5,-166 356.5,-166 362.5,-172 362.5,-178 362.5,-178 362.5,-260 362.5,-260 362.5,-266 356.5,-272 350.5,-272 350.5,-272 243.5,-272 243.5,-272 237.5,-272 231.5,-266 231.5,-260 231.5,-260 231.5,-178 231.5,-178 231.5,-172 237.5,-166 243.5,-166"/>
<text text-anchor="middle" x="297" y="-256.8" font-family="Times,serif" font-size="14.00">Trabajador</text>
<polyline fill="none" stroke="black" points="231.5,-249 362.5,-249 "/>
<text text-anchor="start" x="239.5" y="-233.8" font-family="Times,serif" font-size="14.00">id :INTEGER</text>
<text text-anchor="start" x="239.5" y="-218.8" font-family="Times,serif" font-size="14.00">nombre :varchar</text>
<text text-anchor="start" x="239.5" y="-203.8" font-family="Times,serif" font-size="14.00">email :varchar</text>
<text text-anchor="start" x="239.5" y="-188.8" font-family="Times,serif" font-size="14.00">created_at :datetime</text>
<text text-anchor="start" x="239.5" y="-173.8" font-family="Times,serif" font-size="14.00">updated_at :datetime</text>
</g>
<!-- Operacion -->
<g id="node4" class="node"><title>Operacion</title>
<path fill="none" stroke="black" d="M316,-0.5C316,-0.5 426,-0.5 426,-0.5 432,-0.5 438,-6.5 438,-12.5 438,-12.5 438,-109.5 438,-109.5 438,-115.5 432,-121.5 426,-121.5 426,-121.5 316,-121.5 316,-121.5 310,-121.5 304,-115.5 304,-109.5 304,-109.5 304,-12.5 304,-12.5 304,-6.5 310,-0.5 316,-0.5"/>
<text text-anchor="middle" x="371" y="-106.3" font-family="Times,serif" font-size="14.00">Operacion</text>
<polyline fill="none" stroke="black" points="304,-98.5 438,-98.5 "/>
<text text-anchor="start" x="312" y="-83.3" font-family="Times,serif" font-size="14.00">id :INTEGER</text>
<text text-anchor="start" x="312" y="-68.3" font-family="Times,serif" font-size="14.00">trabajo :varchar</text>
<text text-anchor="start" x="312" y="-53.3" font-family="Times,serif" font-size="14.00">trabajador_id :integer</text>
<text text-anchor="start" x="312" y="-38.3" font-family="Times,serif" font-size="14.00">created_at :datetime</text>
<text text-anchor="start" x="312" y="-23.3" font-family="Times,serif" font-size="14.00">updated_at :datetime</text>
<text text-anchor="start" x="312" y="-8.3" font-family="Times,serif" font-size="14.00">inventario_id :integer</text>
</g>
<!-- Trabajador&#45;&gt;Operacion -->
<g id="edge1" class="edge"><title>Trabajador&#45;&gt;Operacion</title>
<path fill="none" stroke="#3f910e" d="M325.359,-158.217C329.641,-149.19 334.086,-139.818 338.448,-130.623"/>
<ellipse fill="none" stroke="#3f910e" cx="323.561" cy="-162.006" rx="4.00002" ry="4.00002"/>
<polygon fill="#3f910e" stroke="#3f910e" points="338.487,-130.54 346.839,-123.434 340.63,-126.023 342.773,-121.505 342.773,-121.505 342.773,-121.505 340.63,-126.023 338.707,-119.577 338.487,-130.54 338.487,-130.54"/>
</g>
<!-- Inventario -->
<g id="node3" class="node"><title>Inventario</title>
<path fill="none" stroke="black" d="M392.5,-158.5C392.5,-158.5 499.5,-158.5 499.5,-158.5 505.5,-158.5 511.5,-164.5 511.5,-170.5 511.5,-170.5 511.5,-267.5 511.5,-267.5 511.5,-273.5 505.5,-279.5 499.5,-279.5 499.5,-279.5 392.5,-279.5 392.5,-279.5 386.5,-279.5 380.5,-273.5 380.5,-267.5 380.5,-267.5 380.5,-170.5 380.5,-170.5 380.5,-164.5 386.5,-158.5 392.5,-158.5"/>
<text text-anchor="middle" x="446" y="-264.3" font-family="Times,serif" font-size="14.00">Inventario</text>
<polyline fill="none" stroke="black" points="380.5,-256.5 511.5,-256.5 "/>
<text text-anchor="start" x="388.5" y="-241.3" font-family="Times,serif" font-size="14.00">id :INTEGER</text>
<text text-anchor="start" x="388.5" y="-226.3" font-family="Times,serif" font-size="14.00">num_serie :varchar</text>
<text text-anchor="start" x="388.5" y="-211.3" font-family="Times,serif" font-size="14.00">tamanio :integer</text>
<text text-anchor="start" x="388.5" y="-196.3" font-family="Times,serif" font-size="14.00">descripcion :text</text>
<text text-anchor="start" x="388.5" y="-181.3" font-family="Times,serif" font-size="14.00">created_at :datetime</text>
<text text-anchor="start" x="388.5" y="-166.3" font-family="Times,serif" font-size="14.00">updated_at :datetime</text>
</g>
<!-- Inventario&#45;&gt;Operacion -->
<g id="edge2" class="edge"><title>Inventario&#45;&gt;Operacion</title>
<path fill="none" stroke="#4355f3" d="M413.688,-150.79C410.273,-143.687 406.799,-136.463 403.384,-129.358"/>
<ellipse fill="none" stroke="#4355f3" cx="415.484" cy="-154.527" rx="4.00002" ry="4.00002"/>
<ellipse fill="#4355f3" stroke="#4355f3" cx="401.439" cy="-125.312" rx="4.00002" ry="4.00002"/>
</g>
</g>
</svg>
