<?xml version="1.0" encoding="UTF-8" standalone="no"?>
<!DOCTYPE svg PUBLIC "-//W3C//DTD SVG 1.1//EN"
 "http://www.w3.org/Graphics/SVG/1.1/DTD/svg11.dtd">
<!-- Generated by graphviz version 2.36.0 (20140111.2315)
 -->
<!-- Title: models_diagram Pages: 1 -->
<svg width="448pt" height="158pt"
 viewBox="0.00 0.00 448.00 158.00" xmlns="http://www.w3.org/2000/svg" xmlns:xlink="http://www.w3.org/1999/xlink">
<g id="graph0" class="graph" transform="scale(1 1) rotate(0) translate(4 154)">
<title>models_diagram</title>
<polygon fill="none" stroke="none" points="-4,4 -4,-154 444,-154 444,4 -4,4"/>
<!-- _diagram_info -->
<g id="node1" class="node"><title>_diagram_info</title>
<text text-anchor="start" x="7" y="-135.6" font-family="Times,serif" font-size="13.00">Models diagram</text>
<text text-anchor="start" x="7" y="-121.6" font-family="Times,serif" font-size="13.00">Date: Apr 15 2016 &#45; 20:31</text>
<text text-anchor="start" x="7" y="-107.6" font-family="Times,serif" font-size="13.00">Migration version: 20160416011844</text>
<text text-anchor="start" x="7" y="-93.6" font-family="Times,serif" font-size="13.00">Generated by RailRoady 1.4.2</text>
<text text-anchor="start" x="7" y="-79.6" font-family="Times,serif" font-size="13.00">http://railroady.prestonlee.com</text>
</g>
<!-- Trabajador -->
<g id="node2" class="node"><title>Trabajador</title>
<ellipse fill="none" stroke="black" cx="280" cy="-111" rx="49.0941" ry="18"/>
<text text-anchor="middle" x="280" y="-107.3" font-family="Times,serif" font-size="14.00">Trabajador</text>
</g>
<!-- Operacion -->
<g id="node4" class="node"><title>Operacion</title>
<ellipse fill="none" stroke="black" cx="337" cy="-18" rx="47.169" ry="18"/>
<text text-anchor="middle" x="337" y="-14.3" font-family="Times,serif" font-size="14.00">Operacion</text>
</g>
<!-- Trabajador&#45;&gt;Operacion -->
<g id="edge1" class="edge"><title>Trabajador&#45;&gt;Operacion</title>
<path fill="none" stroke="#70e7fc" d="M294.809,-86.3571C302.92,-73.4086 312.971,-57.3626 321.228,-44.1804"/>
<ellipse fill="none" stroke="#70e7fc" cx="292.578" cy="-89.9193" rx="4.00002" ry="4.00002"/>
<polygon fill="#70e7fc" stroke="#70e7fc" points="321.303,-44.0598 330.425,-37.9738 323.957,-39.8224 326.612,-35.585 326.612,-35.585 326.612,-35.585 323.957,-39.8224 322.798,-33.1962 321.303,-44.0598 321.303,-44.0598"/>
</g>
<!-- Inventario -->
<g id="node3" class="node"><title>Inventario</title>
<ellipse fill="none" stroke="black" cx="394" cy="-111" rx="46.1964" ry="18"/>
<text text-anchor="middle" x="394" y="-107.3" font-family="Times,serif" font-size="14.00">Inventario</text>
</g>
<!-- Inventario&#45;&gt;Operacion -->
<g id="edge2" class="edge"><title>Inventario&#45;&gt;Operacion</title>
<path fill="none" stroke="#06b9bf" d="M379.191,-86.3571C370.768,-72.9106 360.253,-56.1238 351.828,-42.6724"/>
<ellipse fill="none" stroke="#06b9bf" cx="381.422" cy="-89.9193" rx="4.00002" ry="4.00002"/>
<ellipse fill="#06b9bf" stroke="#06b9bf" cx="349.512" cy="-38.9749" rx="4.00002" ry="4.00002"/>
</g>
</g>
</svg>
